<svg width="6" height="6" viewBox="0 0 6 6" fill="none" xmlns="http://www.w3.org/2000/svg">
<path d="M5.66516 4.1086L5.20362 4.91403L3.70136 4.04525C3.59879 3.97888 3.50226 3.91252 3.41176 3.84615C3.32127 3.77979 3.24284 3.70437 3.17647 3.61991C3.26093 3.80694 3.30317 4.02413 3.30317 4.27149V6H2.36199V4.28959C2.36199 4.03017 2.39517 3.81297 2.46154 3.63801C2.34691 3.78884 2.181 3.92458 1.9638 4.04525L0.470588 4.90498L0.00904979 4.09955L1.49321 3.23982C1.71041 3.11312 1.92459 3.03167 2.13575 2.99547C1.92459 2.97134 1.71041 2.88989 1.49321 2.75113L0 1.88235L0.461538 1.07692L1.9638 1.9457C2.06636 2.01207 2.15988 2.08145 2.24434 2.15385C2.33484 2.22021 2.41327 2.29563 2.47964 2.38009C2.40121 2.18703 2.36199 1.96682 2.36199 1.71946V0H3.30317V1.71041C3.30317 1.83107 3.29412 1.9457 3.27602 2.0543C3.26395 2.1629 3.2368 2.26546 3.19457 2.36199C3.33333 2.19909 3.50226 2.06033 3.70136 1.9457L5.19457 1.08597L5.65611 1.8914L4.17195 2.75113C4.06938 2.81146 3.96682 2.86576 3.86425 2.91403C3.76169 2.95626 3.65912 2.98341 3.55656 2.99547C3.65912 3.01357 3.76169 3.04374 3.86425 3.08597C3.96682 3.12217 4.06938 3.17345 4.17195 3.23982L5.66516 4.1086Z" fill="#E22420"/>
</svg>
