<svg width="24" height="24" viewBox="0 0 24 24" fill="none" xmlns="http://www.w3.org/2000/svg">
<path d="M19 11C18.7995 11.0004 18.5991 11.0124 18.4 11.036L17.793 9.216C18.288 9.129 18.811 9.064 19.286 9.029C19.767 10.053 21.909 10.543 22 9V7C21.9 5.426 19.707 5.967 19.253 7.026C18.5751 7.07189 17.9006 7.15838 17.233 7.285L17.154 7.301L16.632 5.735C16.3673 4.93819 15.8583 4.24506 15.1772 3.75407C14.4961 3.26309 13.6776 2.99924 12.838 3H11C10.7348 3 10.4804 3.10536 10.2929 3.29289C10.1054 3.48043 10 3.73478 10 4C10 4.26522 10.1054 4.51957 10.2929 4.70711C10.4804 4.89464 10.7348 5 11 5H12.838C13.2583 4.99948 13.668 5.13136 14.0091 5.37693C14.3502 5.6225 14.6052 5.96926 14.738 6.368L15.291 8.027C14.8408 8.29614 14.4279 8.62328 14.063 9H8.825C8.6184 8.41565 8.23588 7.90963 7.73002 7.5515C7.22416 7.19337 6.6198 7.00071 6 7H3C2.73478 7 2.48043 7.10536 2.29289 7.29289C2.10536 7.48043 2 7.73478 2 8C2 8.26522 2.10536 8.51957 2.29289 8.70711C2.48043 8.89464 2.73478 9 3 9H6C6.18625 8.99791 6.36925 9.04879 6.52771 9.14669C6.68616 9.24459 6.81354 9.3855 6.895 9.553C6.95637 9.67621 6.99209 9.81059 7 9.948C6.98162 10.1773 6.91337 10.3998 6.8 10.6L6.36 11.186C5.61649 10.9811 4.83579 10.9501 4.07837 11.0953C3.32095 11.2406 2.60713 11.5583 1.9922 12.0237C1.37726 12.4892 0.877718 13.0899 0.532251 13.7795C0.186783 14.469 0.00466484 15.2288 0 16C0.114 22.163 8.966 22.763 9.947 16.726C10.6433 16.4556 11.2503 15.9964 11.7 15.4L15.151 10.8C15.3993 10.5176 15.6645 10.2504 15.945 10L16.5 11.67C15.5582 12.2277 14.8246 13.0781 14.4113 14.0916C13.998 15.1052 13.9277 16.2261 14.211 17.2833C14.4942 18.3405 15.1157 19.2761 15.9803 19.9472C16.845 20.6182 17.9055 20.988 19 21C25.608 20.79 25.606 11.209 19 11ZM5 19C4.20435 19 3.44129 18.6839 2.87868 18.1213C2.31607 17.5587 2 16.7957 2 16C2 15.2044 2.31607 14.4413 2.87868 13.8787C3.44129 13.3161 4.20435 13 5 13L4.4 13.8C4.17715 14.0971 4.04144 14.4505 4.00808 14.8204C3.97473 15.1903 4.04504 15.5622 4.21115 15.8944C4.37725 16.2266 4.63259 16.506 4.94854 16.7013C5.26449 16.8966 5.62858 17 6 17H7.828C7.62123 17.5848 7.23825 18.0912 6.7318 18.4494C6.22534 18.8075 5.62031 18.9999 5 19ZM10.1 14.2C9.91317 14.4478 9.67149 14.649 9.3939 14.7878C9.11631 14.9266 8.81035 14.9992 8.5 15H6L8.4 11.8C8.58306 11.5565 8.72836 11.2868 8.831 11H12.5L10.1 14.2ZM19 19C18.3793 18.9916 17.7763 18.7917 17.2735 18.4275C16.7707 18.0634 16.3927 17.5528 16.1911 16.9657C15.9895 16.3785 15.9742 15.7435 16.1473 15.1473C16.3203 14.5511 16.6733 14.0229 17.158 13.635L18.052 16.316C18.0935 16.4408 18.1592 16.5561 18.2452 16.6555C18.3313 16.7549 18.4361 16.8363 18.5537 16.8952C18.6713 16.9541 18.7993 16.9892 18.9304 16.9986C19.0615 17.008 19.1932 16.9915 19.318 16.95C19.4428 16.9085 19.5581 16.8428 19.6575 16.7568C19.7569 16.6707 19.8383 16.5659 19.8972 16.4483C19.9561 16.3307 19.9912 16.2027 20.0006 16.0716C20.01 15.9405 19.9935 15.8088 19.952 15.684L19.054 13C19.8496 13.0072 20.6099 13.3301 21.1674 13.8978C21.725 14.4654 22.0342 15.2314 22.027 16.027C22.0198 16.8227 21.6969 17.5829 21.1292 18.1404C20.5616 18.698 19.7956 19.0072 19 19Z" fill="#5D5D5D"/>
</svg>
