<svg width="28" height="35" viewBox="0 0 28 35" fill="none" xmlns="http://www.w3.org/2000/svg">
<path fill-rule="evenodd" clip-rule="evenodd" d="M6.24811 7.5C6.24811 3.35786 9.60597 0 13.7481 0C17.8902 0 21.2481 3.35786 21.2481 7.5C21.2481 11.6421 17.8902 15 13.7481 15C9.60597 15 6.24811 11.6421 6.24811 7.5Z" fill="#5D5D5D"/>
<path fill-rule="evenodd" clip-rule="evenodd" d="M0.000186555 31.0089C0.129087 23.5259 6.23475 17.5 13.7481 17.5C21.2616 17.5 27.3674 23.5262 27.496 31.0094C27.5046 31.5057 27.2187 31.96 26.7675 32.167C22.8026 33.9863 18.3923 35 13.7486 35C9.10454 35 4.69383 33.9861 0.728646 32.1665C0.277529 31.9595 -0.00836232 31.5052 0.000186555 31.0089Z" fill="#5D5D5D"/>
</svg>
